# xmcd CD database file
#
# Track frame offsets:
#	150
#	16337
#	29976
#	47643
#	65844
#	80661
#	98584
#
# Disc length: 1543 seconds
#
# Revision: 2
# Processed by: cddbd v1.5.2PL0 Copyright (c) Steve Scherf et al.
# Submitted via: jetAudio 7
#
DISCID=5b060507
DTITLE=아이유(IU) - 꽃갈피
DYEAR=2014
DGENRE=K-Pop
TTITLE0=나의 옛날이야기
TTITLE1=꽃
TTITLE2=삐에로는 우릴 보고 웃지
TTITLE3=사랑이 지나가면
TTITLE4=너의 의미(Feat.김창완)
TTITLE5=여름밤의 꿈
TTITLE6=쿵따리 샤바라(Feat.클론)
EXTD=
EXTT0=
EXTT1=
EXTT2=
EXTT3=
EXTT4=
EXTT5=
EXTT6=
PLAYORDER=
